<svg xmlns="http://www.w3.org/2000/svg" width="55.066" height="54.779" viewBox="0 0 55.066 54.779">
<g transform="translate(-344.664 -492.795)">
<path data="first sector" d="M383.77,508.672l7.9-7.855A27.523,27.523,0,0,0,372.2,492.8V503.9A16.359,16.359,0,0,1,383.77,508.672Z" fill="#c1d2d6"/>
<path data="second sector" d="M388.563,520.184H399.73a27.235,27.235,0,0,0-8.064-19.367l-7.9,7.855A16.19,16.19,0,0,1,388.563,520.184Z" fill="#20364c"/>
<path data="third sector" d="M388.563,520.184A16.193,16.193,0,0,1,383.77,531.7l7.9,7.855a27.236,27.236,0,0,0,8.064-19.368Z" fill="#20364c"/>
<path data="fourth sector" d="M372.2,536.465v11.109a27.523,27.523,0,0,0,19.469-8.022l-7.9-7.855A16.359,16.359,0,0,1,372.2,536.465Z" fill="#20364c"/>
<path data="fifth sector" d="M360.625,531.7l-7.9,7.855a27.519,27.519,0,0,0,19.468,8.022V536.465A16.357,16.357,0,0,1,360.625,531.7Z" fill="#20364c"/>
<path data="sixth sector" d="M355.831,520.184H344.664a27.233,27.233,0,0,0,8.065,19.368l7.9-7.855A16.189,16.189,0,0,1,355.831,520.184Z" fill="#20364c"/>
<path data="seventh sector" d="M360.625,508.672l-7.9-7.855a27.232,27.232,0,0,0-8.065,19.367h11.167A16.187,16.187,0,0,1,360.625,508.672Z" fill="#20364c"/>
<path data="eighth sector" d="M372.2,503.9V492.8a27.519,27.519,0,0,0-19.468,8.022l7.9,7.855A16.357,16.357,0,0,1,372.2,503.9Z" fill="#20364c"/>
</g>
</svg>